
<svg xmlns="http://www.w3.org/2000/svg"
     class="svg-snoweb svg-theme-dark"
     x="0"
     y="0"
     width="100%"
     height="100%"
     viewBox="0 0 100 100"
     preserveAspectRatio="xMidYMid meet"
>
<defs>
    <style>
        
            
            
            
        

        .svg-fill-primary {
            fill: #37A987;
        }

        .svg-fill-secondary {
            fill: #65CDAE;
        }

        .svg-fill-tertiary {
            fill: #37A987;
        }

        .svg-stroke-primary {
            stroke: #37A987;
        }

        .svg-stroke-secondary {
            stroke: #65CDAE;
        }

        .svg-stroke-tertiary {
            stroke: #37A987;
        }
    </style>
</defs>
    <path d="M58.2,25.5A3.6,3.6,0,0,1,60.4,30L46.3,72.2A3.5,3.5,0,1,1,39.6,70L53.7,27.8A3.5,3.5,0,0,1,58.2,25.5ZM34.9,36.9a3.5,3.5,0,0,1,0,5L26.8,50l8.1,8.1a3.5,3.5,0,0,1,0,5,3.7,3.7,0,0,1-5,0L19.3,52.5a3.7,3.7,0,0,1,0-5L29.9,36.9A3.7,3.7,0,0,1,34.9,36.9Zm30.2,0a3.7,3.7,0,0,1,5,0L80.7,47.5a3.7,3.7,0,0,1,0,5L70.1,63.1a3.7,3.7,0,0,1-5,0,3.5,3.5,0,0,1,0-5L73.2,50l-8.1-8.1A3.5,3.5,0,0,1,65.1,36.9Z"
          class="svg-fill-primary" fill-rule="evenodd"/>
</svg>