
<svg xmlns="http://www.w3.org/2000/svg"
     class="svg-snoweb svg-theme-dark"
     x="0"
     y="0"
     width="100%"
     height="100%"
     viewBox="0 0 100 100"
     preserveAspectRatio="xMidYMid meet"
>
<defs>
    <style>
        
            
            
            
        

        .svg-fill-primary {
            fill: #37A987;
        }

        .svg-fill-secondary {
            fill: #65CDAE;
        }

        .svg-fill-tertiary {
            fill: #37A987;
        }

        .svg-stroke-primary {
            stroke: #37A987;
        }

        .svg-stroke-secondary {
            stroke: #65CDAE;
        }

        .svg-stroke-tertiary {
            stroke: #37A987;
        }
    </style>
</defs>
    <path d="M59.5,20.5a3.9,3.9,0,0,0-2.5-2,4.3,4.3,0,0,0-3.3.5,11.9,11.9,0,0,0-3.2,3.5,26,26,0,0,0-2.3,4.4,76.2,76.2,0,0,0-3.3,10.8,120.4,120.4,0,0,0-2.4,14.2,11.4,11.4,0,0,1-3.8-4.2c-1.3-2.7-1.5-6.1-1.5-10.5a4,4,0,0,0-2.5-3.7,3.8,3.8,0,0,0-4.3.9,27.7,27.7,0,1,0,39.2,0,62.4,62.4,0,0,1-5.3-5.8A42.9,42.9,0,0,1,59.5,20.5ZM58.4,70.3a11.9,11.9,0,0,1-20.3-8.4s3.5,2,9.9,2c0-4,2-15.9,5-17.9a21.7,21.7,0,0,0,5.4,7.5,11.8,11.8,0,0,1,3.5,8.4A12,12,0,0,1,58.4,70.3Z"
          class="svg-fill-primary" fill-rule="evenodd"/>
</svg>